# xmcd CD database file
#
# Track frame offsets:
#	150
#	21110
#	39325
#	60420
#
# Disc length: 1044 seconds
#
# Revision: 0
# Processed by: cddbd v1.5PL3 Copyright (c) Steve Scherf et al.
# Submitted via: CDex 1.50beta8
#
DISCID=25041204
DTITLE=キタキマユ - ラブアンドピース
DYEAR=1900
DGENRE=不明
TTITLE0=ラブアンドピース
TTITLE1=ユー・メイ・ドリーム
TTITLE2=ラブアンドピース(instrumental)
TTITLE3=ユー・メイ・ドリーム(instrumental)
EXTD=
EXTT0=
EXTT1=
EXTT2=
EXTT3=
PLAYORDER=
